<mxfile host="app.diagrams.net" modified="2023-11-06T11:52:01.557Z" agent="Mozilla/5.0 (Windows NT 10.0; Win64; x64) AppleWebKit/537.36 (KHTML, like Gecko) Chrome/119.0.0.0 Safari/537.36" etag="G57lnHDNSxO7FXXLFK4l" version="22.0.8" type="github">
  <diagram name="Page-1" id="fbcf5db9-b524-4cd4-e4f3-379dc89c3999">
    <mxGraphModel dx="1420" dy="744" grid="1" gridSize="10" guides="1" tooltips="1" connect="1" arrows="1" fold="1" page="1" pageScale="1" pageWidth="850" pageHeight="1100" background="none" math="0" shadow="0">
      <root>
        <mxCell id="0" />
        <mxCell id="1" parent="0" />
        <mxCell id="2a0f93b5c73ef8e7-1" value="" style="line;strokeWidth=10;direction=south;html=1;fillColor=none;fontSize=13;fontColor=#182E3E;align=center;strokeColor=#BAC8D3;labelBackgroundColor=none;" parent="1" vertex="1">
          <mxGeometry x="413.385" y="118.11" width="7.874" height="990.1555" as="geometry" />
        </mxCell>
        <mxCell id="FrcaDq-RCSq2BCNXma5n-4" value="" style="rounded=1;whiteSpace=wrap;html=1;strokeColor=none;strokeWidth=1;fillColor=#A1C3F0;fontSize=13;fontColor=#182E3E;align=center;gradientDirection=east;verticalAlign=top;shadow=1;labelBackgroundColor=none;" vertex="1" parent="1">
          <mxGeometry x="270" y="210" width="460" height="30" as="geometry" />
        </mxCell>
        <mxCell id="FrcaDq-RCSq2BCNXma5n-5" value="Часть 10" style="text;html=1;strokeColor=none;fillColor=none;align=center;verticalAlign=middle;whiteSpace=wrap;fontSize=20;fontColor=#182E3E;labelBackgroundColor=none;fontFamily=Calibri;" vertex="1" parent="1">
          <mxGeometry x="270" y="215" width="86" height="15" as="geometry" />
        </mxCell>
        <mxCell id="FrcaDq-RCSq2BCNXma5n-6" value="Мониторинг модели машинного обучения в эксплуатации" style="text;strokeColor=none;align=left;fillColor=none;html=1;verticalAlign=middle;whiteSpace=wrap;rounded=0;fontColor=#182E3E;fontFamily=Calibri;fontSize=14;" vertex="1" parent="1">
          <mxGeometry x="360" y="210" width="360" height="30" as="geometry" />
        </mxCell>
        <mxCell id="FrcaDq-RCSq2BCNXma5n-10" value="" style="rounded=1;whiteSpace=wrap;html=1;strokeColor=none;strokeWidth=1;fillColor=#A1C3F0;fontSize=13;fontColor=#182E3E;align=center;gradientDirection=east;verticalAlign=top;shadow=1;labelBackgroundColor=none;" vertex="1" parent="1">
          <mxGeometry x="120" y="130" width="460" height="30" as="geometry" />
        </mxCell>
        <mxCell id="FrcaDq-RCSq2BCNXma5n-11" value="Часть 1" style="text;html=1;strokeColor=none;fillColor=none;align=center;verticalAlign=middle;whiteSpace=wrap;fontSize=20;fontColor=#182E3E;labelBackgroundColor=none;fontFamily=Calibri;" vertex="1" parent="1">
          <mxGeometry x="120" y="135" width="86" height="15" as="geometry" />
        </mxCell>
        <mxCell id="FrcaDq-RCSq2BCNXma5n-12" value="Инженерия данных" style="text;strokeColor=none;align=left;fillColor=none;html=1;verticalAlign=middle;whiteSpace=wrap;rounded=0;fontColor=#182E3E;fontFamily=Calibri;fontSize=14;" vertex="1" parent="1">
          <mxGeometry x="210" y="130" width="360" height="30" as="geometry" />
        </mxCell>
      </root>
    </mxGraphModel>
  </diagram>
</mxfile>
